<svg width="820" height="519" viewBox="0 0 820 519" fill="none" xmlns="http://www.w3.org/2000/svg">
<rect width="820" height="519" fill="#E5E5E5"/>
<g id="test-scene">
<g clip-path="url(#clip0)">
<rect width="820" height="519" fill="white"/>
<g id="phone-shadow">
<path id="Vector" opacity="0.2" d="M426.141 333.75C491.596 333.75 544.658 330.173 544.658 325.76C544.658 321.347 491.596 317.77 426.141 317.77C360.685 317.77 307.624 321.347 307.624 325.76C307.624 330.173 360.685 333.75 426.141 333.75Z" fill="black"/>
</g>
<g id="canvas">
<path id="Vector_2" opacity="0.2" d="M211.088 302.853C211.088 302.853 212.808 333.016 139.39 370.217C139.39 370.217 139.302 370.381 676.837 370.217C676.837 370.217 615.464 332.01 611.449 289.279" fill="black"/>
<path id="Vector_3" d="M609.176 281.289V27.8266C612.637 27.041 615.702 25.2704 617.89 22.7926C620.079 20.3148 621.266 17.2702 621.267 14.1368C621.267 12.2803 620.849 10.4421 620.039 8.72691C619.228 7.01177 618.04 5.45333 616.542 4.14062C615.045 2.8279 613.266 1.78661 611.31 1.07617C609.353 0.36574 607.255 8.72701e-05 605.137 9.15528e-05H218.028C215.91 8.83408e-05 213.813 0.365739 211.856 1.07617C209.899 1.78661 208.121 2.82791 206.623 4.14063C205.125 5.45335 203.937 7.01177 203.127 8.72691C202.316 10.4421 201.899 12.2803 201.899 14.1368C201.899 17.8861 203.598 21.4818 206.623 24.133C209.648 26.7842 213.75 28.2736 218.028 28.2736H218.032L209.07 281.513L137.117 362.227C137.117 362.227 136.512 362.228 674.564 362.227C674.564 362.227 674.186 363.044 609.176 281.289Z" fill="#E6E6E6"/>
<path id="Vector_4" opacity="0.2" d="M218.028 28.2739L609.176 38.2581L609.345 27.6592L218.028 28.2739Z" fill="black"/>
</g>
<g id="phone">
<path id="Vector_5" d="M500.642 117.163V148.326C500.641 148.614 500.511 148.89 500.278 149.093C500.046 149.297 499.731 149.412 499.403 149.412H498.52V311.749C498.52 316.241 496.484 320.549 492.86 323.726C489.235 326.902 484.32 328.687 479.194 328.687H363.461C360.923 328.687 358.411 328.248 356.067 327.397C353.722 326.546 351.592 325.298 349.798 323.725C348.004 322.152 346.581 320.285 345.61 318.23C344.64 316.175 344.14 313.973 344.141 311.749V155.106H343.502C343.27 155.106 343.048 155.026 342.883 154.883C342.719 154.74 342.626 154.545 342.625 154.342V136.607C342.625 136.506 342.647 136.406 342.692 136.313C342.736 136.219 342.8 136.135 342.882 136.063C342.963 135.992 343.06 135.935 343.166 135.897C343.273 135.858 343.387 135.838 343.502 135.838H344.141V129.158H343.496C343.253 129.157 343.02 129.072 342.849 128.92C342.677 128.769 342.581 128.564 342.582 128.351V110.858C342.582 110.645 342.679 110.442 342.85 110.292C343.022 110.141 343.254 110.057 343.496 110.056H344.141V100.937H343.485C343.379 100.937 343.273 100.919 343.175 100.883C343.076 100.847 342.986 100.795 342.911 100.729C342.836 100.663 342.776 100.584 342.735 100.498C342.694 100.411 342.673 100.319 342.674 100.225V90.6791C342.673 90.4898 342.758 90.3081 342.91 90.1737C343.063 90.0394 343.269 89.9635 343.485 89.9627H344.141V70.6332C344.141 66.1422 346.176 61.8352 349.8 58.6596C353.423 55.484 358.337 53.6999 363.461 53.6997H479.194C484.319 53.6997 489.234 55.4836 492.858 58.6591C496.482 61.8346 498.519 66.1417 498.52 70.6332V116.077H499.403C499.731 116.078 500.046 116.192 500.278 116.396C500.511 116.6 500.641 116.876 500.642 117.163Z" fill="#3F3D56"/>
<path id="Vector_6" d="M426.904 62.3856H408.098C407.338 62.3856 406.722 62.9255 406.722 63.5916V65.0162C406.722 65.6823 407.338 66.2222 408.098 66.2222H426.904C427.664 66.2222 428.28 65.6823 428.28 65.0162V63.5916C428.28 62.9255 427.664 62.3856 426.904 62.3856Z" fill="#E6E8EC"/>
<path id="Vector_7" d="M434.022 66.4801C435.393 66.4801 436.505 65.5058 436.505 64.3039C436.505 63.102 435.393 62.1277 434.022 62.1277C432.651 62.1277 431.539 63.102 431.539 64.3039C431.539 65.5058 432.651 66.4801 434.022 66.4801Z" fill="#E6E8EC"/>
<path id="Vector_8" d="M489.266 73.9828V313.153C489.264 316.002 487.972 318.735 485.673 320.749C483.373 322.763 480.256 323.895 477.005 323.895H366.219C364.609 323.897 363.013 323.621 361.525 323.082C360.036 322.543 358.684 321.752 357.545 320.754C356.406 319.757 355.502 318.571 354.887 317.267C354.271 315.963 353.956 314.565 353.958 313.153V73.9828C353.958 72.5715 354.275 71.1741 354.891 69.8702C355.507 68.5664 356.41 67.3817 357.549 66.3838C358.687 65.3858 360.039 64.5943 361.527 64.0542C363.015 63.5142 364.609 63.2362 366.219 63.2363H382.8V65.1009C382.8 67.4477 383.864 69.6984 385.758 71.3579C387.651 73.0173 390.219 73.9496 392.896 73.9496H449.239C451.917 73.9496 454.485 73.0173 456.378 71.3578C458.271 69.6984 459.335 67.4477 459.335 65.1009V63.2363H477.005C478.615 63.2358 480.21 63.5135 481.697 64.0534C483.185 64.5933 484.537 65.3849 485.676 66.3828C486.814 67.3808 487.718 68.5657 488.334 69.8697C488.95 71.1738 489.266 72.5714 489.266 73.9828Z" fill="white"/>
<path id="Vector_9" d="M478.137 220.69H365.538V233.5H478.137V220.69Z" fill="#E6E6E6"/>
<path id="Vector_10" d="M478.137 243.464H365.538V256.274H478.137V243.464Z" fill="#E6E6E6"/>
<path id="Vector_11" d="M478.137 266.238H365.538V279.048H478.137V266.238Z" fill="#E6E6E6"/>
<path id="Vector_12" d="M477.911 128.645H365.312V194.12H477.911V128.645Z" fill="#E6E6E6"/>
</g>
<g id="left-umbrella">
<path id="Vector_13" d="M211.288 37.6564L153.544 37.9707C153.544 37.9707 58.5012 82.2929 125.211 174.081C125.211 174.081 152.468 168.423 182.595 187.912C182.595 187.912 200.169 41.1141 211.288 37.6564Z" fill="#6C63FF"/>
<path id="Vector_14" opacity="0.2" d="M194.111 38.1158C183.766 75.9896 172.071 173.673 172.071 173.673C145.155 156.261 120.547 158.92 115.603 159.685C118.519 164.745 121.726 169.672 125.211 174.447C125.211 174.447 152.468 168.789 182.595 188.278C182.595 188.278 200.169 41.4801 211.287 38.0223L194.111 38.1158Z" fill="black"/>
<path id="Vector_15" d="M124.852 85.1218L119.831 106.497L56.7293 96.4447L56.7079 96.4382L55.2734 71.291H67.4679L124.852 85.1218Z" fill="#3F3D56"/>
<path id="Vector_16" opacity="0.2" d="M66.4493 71.291L56.7293 96.4447L56.7079 96.4382L55.2734 71.291H66.4493Z" fill="black"/>
<path id="Vector_17" d="M122.7 109.012C126.662 109.012 129.873 102.538 129.873 94.5523C129.873 86.5664 126.662 80.0926 122.7 80.0926C118.739 80.0926 115.527 86.5664 115.527 94.5523C115.527 102.538 118.739 109.012 122.7 109.012Z" fill="#3F3D56"/>
<path id="Vector_18" d="M85.4003 400.128C85.1123 400.128 84.8272 400.079 84.5612 399.982C84.2952 399.886 84.0534 399.744 83.8498 399.565C83.6462 399.387 83.4847 399.175 83.3745 398.942C83.2644 398.709 83.2077 398.459 83.2077 398.207V94.5524C83.2077 94.0427 83.4387 93.5539 83.8499 93.1936C84.2611 92.8332 84.8187 92.6307 85.4002 92.6307C85.9817 92.6307 86.5394 92.8332 86.9506 93.1936C87.3617 93.5539 87.5927 94.0427 87.5927 94.5524V398.207C87.5928 398.459 87.5361 398.709 87.4259 398.942C87.3157 399.175 87.1542 399.387 86.9506 399.565C86.747 399.744 86.5053 399.885 86.2393 399.982C85.9733 400.079 85.6882 400.128 85.4003 400.128Z" fill="#3F3D56"/>
<path id="Vector_19" d="M115.525 453.567C115.016 453.566 114.524 453.411 114.132 453.128C113.74 452.844 113.473 452.45 113.375 452.013L83.2485 316.65C83.1512 316.213 83.2303 315.76 83.472 315.368C83.7138 314.976 84.1033 314.67 84.574 314.502C85.0447 314.334 85.5672 314.315 86.0524 314.447C86.5376 314.58 86.9552 314.856 87.2339 315.228L166.855 421.672C167.174 422.098 167.286 422.618 167.168 423.117C167.049 423.616 166.71 424.053 166.223 424.333C165.737 424.612 165.144 424.711 164.575 424.607C164.005 424.503 163.506 424.206 163.187 423.779L89.6906 325.523L117.679 451.277C117.734 451.525 117.733 451.78 117.676 452.027C117.619 452.275 117.507 452.51 117.346 452.719C117.185 452.928 116.979 453.108 116.739 453.247C116.498 453.387 116.229 453.483 115.947 453.532C115.808 453.555 115.666 453.567 115.525 453.567Z" fill="#3F3D56"/>
<path id="Vector_20" d="M2.19057 429.676C1.79543 429.676 1.40776 429.582 1.06855 429.404C0.729342 429.227 0.451214 428.972 0.263566 428.667C0.0759181 428.362 -0.0142751 428.019 0.00253448 427.673C0.019344 427.327 0.142522 426.991 0.359051 426.702L83.5666 315.425C83.8858 315 84.3844 314.703 84.9531 314.599C85.5217 314.496 86.1139 314.595 86.5997 314.874C87.0854 315.153 87.425 315.589 87.5439 316.087C87.6628 316.586 87.5513 317.105 87.2339 317.531L4.02638 428.808C3.82693 429.075 3.5546 429.294 3.23405 429.446C2.91349 429.598 2.55484 429.677 2.19057 429.676Z" fill="#3F3D56"/>
</g>
<g id="right-umbrella">
<path id="Vector_21" d="M608.713 37.6564L666.456 37.9707C666.456 37.9707 761.499 82.2929 694.789 174.081C694.789 174.081 667.532 168.423 637.405 187.912C637.405 187.912 619.831 41.1141 608.713 37.6564Z" fill="#6C63FF"/>
<path id="Vector_22" opacity="0.2" d="M625.889 38.1158C636.234 75.9896 647.929 173.673 647.929 173.673C674.845 156.261 699.454 158.92 704.397 159.685C701.481 164.745 698.274 169.672 694.789 174.447C694.789 174.447 667.532 168.789 637.405 188.278C637.405 188.278 619.831 41.4801 608.713 38.0223L625.889 38.1158Z" fill="black"/>
<path id="Vector_23" d="M695.148 85.1218L700.169 106.497L763.271 96.4447L763.292 96.4382L764.726 71.291H752.533L695.148 85.1218Z" fill="#3F3D56"/>
<path id="Vector_24" opacity="0.2" d="M753.55 71.291L763.27 96.4447L763.292 96.4382L764.726 71.291H753.55Z" fill="black"/>
<path id="Vector_25" d="M697.3 109.012C701.261 109.012 704.473 102.538 704.473 94.5523C704.473 86.5664 701.261 80.0926 697.3 80.0926C693.338 80.0926 690.127 86.5664 690.127 94.5523C690.127 102.538 693.338 109.012 697.3 109.012Z" fill="#3F3D56"/>
<path id="Vector_26" d="M734.6 400.128C734.312 400.128 734.027 400.079 733.761 399.982C733.495 399.885 733.253 399.744 733.049 399.565C732.846 399.387 732.684 399.175 732.574 398.942C732.464 398.709 732.407 398.459 732.407 398.207V94.5524C732.407 94.0427 732.638 93.5539 733.049 93.1936C733.461 92.8332 734.018 92.6307 734.6 92.6307C735.181 92.6307 735.739 92.8332 736.15 93.1936C736.561 93.5539 736.792 94.0427 736.792 94.5524V398.207C736.792 398.459 736.736 398.709 736.625 398.942C736.515 399.175 736.354 399.387 736.15 399.565C735.947 399.744 735.705 399.885 735.439 399.982C735.173 400.079 734.888 400.128 734.6 400.128Z" fill="#3F3D56"/>
<path id="Vector_27" d="M704.476 453.567C704.334 453.567 704.193 453.555 704.054 453.532C703.483 453.434 702.98 453.142 702.655 452.719C702.33 452.296 702.21 451.778 702.321 451.277L730.309 325.522L656.813 423.779C656.655 423.99 656.451 424.172 656.213 424.314C655.975 424.456 655.707 424.556 655.425 424.607C655.143 424.658 654.853 424.661 654.57 424.614C654.287 424.566 654.017 424.471 653.777 424.333C653.536 424.194 653.328 424.016 653.166 423.807C653.004 423.598 652.891 423.364 652.832 423.117C652.773 422.87 652.771 422.615 652.825 422.367C652.878 422.119 652.987 421.883 653.145 421.672L732.766 315.228C733.045 314.856 733.463 314.58 733.948 314.447C734.433 314.315 734.955 314.334 735.426 314.502C735.897 314.67 736.286 314.976 736.528 315.368C736.77 315.76 736.849 316.213 736.752 316.65L706.625 452.013C706.528 452.45 706.26 452.844 705.868 453.127C705.476 453.411 704.984 453.566 704.476 453.567Z" fill="#3F3D56"/>
<path id="Vector_28" d="M817.809 429.676C817.445 429.677 817.086 429.598 816.766 429.446C816.445 429.294 816.173 429.075 815.974 428.808L732.766 317.531C732.449 317.105 732.337 316.586 732.456 316.087C732.575 315.589 732.915 315.153 733.4 314.874C733.886 314.595 734.478 314.496 735.047 314.599C735.616 314.703 736.114 315 736.433 315.425L819.641 426.702C819.858 426.991 819.981 427.327 819.998 427.673C820.014 428.019 819.924 428.363 819.736 428.667C819.549 428.972 819.271 429.227 818.931 429.404C818.592 429.582 818.204 429.676 817.809 429.676Z" fill="#3F3D56"/>
</g>
<g id="photographer">
<path id="Vector_29" d="M360.025 266.839L375.734 263.006C375.734 263.006 381.887 261.929 378.128 251.397C374.368 240.864 366.911 243.812 366.911 243.812L352.976 247.361L347.474 248.85L355.215 258.368L355.864 264.713L360.025 266.839Z" fill="#3F3D56"/>
<path id="Vector_30" d="M329.671 239.01L324.742 256.265L349.995 277.716L352.166 278.193L357.958 276.767L362.887 259.513L357.895 254.911L362.998 253.74L352.108 244.474L346.425 245.519L341.867 241.553L344.943 240.475L345.233 239.46L341.507 236.889L329.671 239.01Z" fill="#3F3D56"/>
<path id="Vector_31" d="M353.331 263.348L350.069 274.766L335.018 262.295L338.787 250.718L353.331 263.348Z" fill="#6C63FF"/>
<path id="Vector_32" d="M329.671 239.01L328.979 241.43L354.091 262.841L356.262 263.317L361.873 261.986L362.182 261.981L362.887 259.513L357.895 254.911L362.998 253.74L352.108 244.474L346.425 245.519L341.867 241.553L344.943 240.475L345.233 239.46L341.507 236.889L329.671 239.01Z" stroke="#3F3D56" stroke-miterlimit="10"/>
<path id="Vector_33" d="M343.297 239.237C343.487 238.571 342.734 237.833 341.615 237.587C340.496 237.341 339.434 237.682 339.244 238.347C339.054 239.013 339.807 239.752 340.926 239.998C342.046 240.243 343.107 239.903 343.297 239.237Z" fill="#6C63FF"/>
<path id="Vector_34" d="M359.251 257.703C359.441 257.038 358.688 256.299 357.568 256.053C356.449 255.808 355.388 256.148 355.198 256.814C355.007 257.48 355.761 258.218 356.88 258.464C357.999 258.71 359.061 258.369 359.251 257.703Z" fill="#6C63FF"/>
<path id="Vector_35" d="M370.462 288.334L367.037 278.125C367.037 278.125 375.944 259.51 365.666 257.708C355.389 255.907 354.704 275.123 354.704 275.123L358.815 286.532L370.462 288.334Z" fill="#FFB6B6"/>
<path id="Vector_36" d="M306.858 268.485C321.889 268.485 334.075 257.805 334.075 244.631C334.075 231.457 321.889 220.777 306.858 220.777C291.827 220.777 279.642 231.457 279.642 244.631C279.642 257.805 291.827 268.485 306.858 268.485Z" fill="#FFB6B6"/>
<path id="Vector_37" d="M315.664 261.469C315.664 261.469 317.265 279.008 321.267 280.411C325.269 281.815 278.041 291.637 278.041 291.637L290.048 279.71C290.048 279.71 292.45 261.469 286.846 257.259L315.664 261.469Z" fill="#FFB6B6"/>
<path id="Vector_38" d="M354.019 282.929L364.981 281.728C364.981 281.728 377.999 287.734 377.999 295.54C377.999 303.347 385.536 315.957 385.536 315.957C385.536 315.957 391.017 332.771 378.684 333.972C366.352 335.173 355.389 315.957 355.389 315.957L354.019 282.929Z" fill="#6C63FF"/>
<path id="Vector_39" d="M360.185 378.41C360.185 378.41 384.166 358.593 391.017 359.794C397.869 360.995 411.572 362.797 411.572 371.804C411.572 380.812 388.962 401.829 388.962 401.829C388.962 401.829 371.833 434.857 355.389 436.058C344.572 436.918 333.82 438.322 323.187 440.262C323.187 440.262 330.723 464.282 326.613 470.888C322.502 477.493 306.743 485.3 305.373 484.699C304.002 484.099 284.818 468.486 276.596 446.267C268.374 424.048 262.893 407.234 270.43 406.033C277.967 404.832 360.185 378.41 360.185 378.41Z" fill="#2F2E41"/>
<path id="Vector_40" d="M409.516 370.003C409.516 370.003 414.312 369.402 413.627 379.611C412.942 389.819 410.887 426.45 407.461 433.656C404.035 440.862 403.35 449.269 404.72 452.272C406.09 455.274 408.831 460.078 404.035 460.679C399.239 461.279 379.369 458.877 377.314 458.277C375.259 457.676 373.203 447.468 374.573 447.468C375.944 447.468 379.369 446.867 377.999 442.664C376.629 438.46 375.944 438.46 377.999 437.259C380.055 436.058 385.536 434.257 384.166 433.056C382.795 431.855 381.425 403.631 381.425 403.631L409.516 370.003Z" fill="#2F2E41"/>
<path id="Vector_41" d="M402.665 458.877C402.665 458.877 414.312 455.875 415.683 462.48C415.683 462.48 417.738 472.689 408.831 476.292C403.083 478.673 397.581 481.486 392.387 484.699C392.387 484.699 377.999 489.503 377.314 483.498C376.629 477.493 380.055 455.875 380.055 455.875L402.665 458.877Z" fill="#2F2E41"/>
<path id="Vector_42" d="M325.242 466.084L303.317 450.47C303.317 450.47 307.428 469.687 301.947 473.29L299.443 479.705L306.454 484.732C306.454 484.732 327.983 481.697 325.242 466.084Z" fill="#2F2E41"/>
<path id="Vector_43" d="M294.41 439.661C294.41 439.661 308.798 443.264 306.743 455.875C304.688 468.486 302.052 482.186 302.052 482.186C302.052 482.186 301.262 515.925 290.984 518.327C280.707 520.73 277.967 515.925 277.967 515.925C277.967 515.925 266.284 489.561 269.745 481.697C273.934 472.178 279.969 461.49 277.967 458.277C275.996 455.115 279.337 437.86 294.41 439.661Z" fill="#2F2E41"/>
<path id="Vector_44" d="M286.188 273.922C286.188 273.922 291.67 274.522 300.577 275.723C309.484 276.924 315.65 270.919 320.446 272.12C325.242 273.321 364.981 281.728 364.981 281.728L358.815 323.163C358.815 323.163 366.352 371.204 364.981 379.611C363.611 388.018 381.425 386.817 371.148 397.025C360.87 407.234 343.056 416.242 306.743 413.239C270.43 410.237 265.634 410.837 265.634 406.033C265.634 401.229 273.856 360.395 271.115 356.792C268.374 353.189 262.893 348.985 265.634 344.781C268.374 340.578 271.115 338.176 267.004 334.573C262.893 330.97 260.838 327.367 260.838 325.565C260.838 323.764 251.246 294.339 251.246 294.339C251.246 294.339 255.356 279.927 260.153 279.326C264.949 278.726 269.06 275.723 272.485 275.723C275.911 275.723 277.967 276.324 280.022 275.723L286.188 273.922Z" fill="#6C63FF"/>
<path id="Vector_45" d="M351.892 236.264C351.539 234.876 349.814 230.236 346.306 229.104C343.739 228.276 338.963 230.026 336.585 229.735L336.278 228.972C336.075 227.468 335.647 225.995 335.006 224.589C333.75 221.777 331.858 219.216 329.446 217.061C327.033 214.905 324.148 213.199 320.965 212.044C313.13 209.173 300.739 206.8 289.987 214.321C275.22 224.652 277.822 240.111 278.895 244.4C279.074 245.116 279.228 245.836 279.355 246.56C280.017 250.338 281.924 250.789 281.924 250.789C281.924 250.789 281.883 250.68 281.816 250.482L295.154 251.62L302.366 250.541C302.486 251.159 302.533 251.524 302.533 251.524C323.576 248.705 335.822 238.991 337.811 237.306C339.559 238.322 342.815 239.98 345.972 240.344C350.596 240.877 352.244 237.652 351.892 236.264ZM297.672 245.552L280.726 245.012C280.486 240.958 281.681 236.218 288.492 235.976C295.059 235.742 298.644 240.422 300.543 244.707L297.672 245.552Z" fill="#2F2E41"/>
<path id="Vector_46" d="M302.1 210.889C303.732 210.644 304.969 210.008 304.864 209.467C304.759 208.925 303.35 208.685 301.718 208.929C300.086 209.173 298.849 209.809 298.954 210.351C299.059 210.892 300.468 211.133 302.1 210.889Z" fill="#2F2E41"/>
</g>
</g>
</g>
<defs>
<clipPath id="clip0">
<rect width="820" height="519" fill="white"/>
</clipPath>
</defs>
</svg>
